STARTFONT 2.1
COMMENT Exported by Fony v1.4.7
FONT 12X17TG
SIZE 17 96 96
FONTBOUNDINGBOX 12 16 0 -11
STARTPROPERTIES 6
COPYRIGHT "Tangar @ http://tangar.info for TomeNET @ http://tomenet.eu"
RESOLUTION_X 96
RESOLUTION_Y 96
FONT_ASCENT 6
FONT_DESCENT 11
DEFAULT_CHAR 31
ENDPROPERTIES
CHARS 256
STARTCHAR 000
ENCODING 0
SWIDTH 864 0
DWIDTH 12 0
BBX 12 17 0 -11
BITMAP
8000
4010
0000
2020
1040
0080
0800
0500
0000
0200
0500
0800
0080
1040
0020
0000
4010
ENDCHAR
STARTCHAR 001
ENCODING 1
SWIDTH 864 0
DWIDTH 12 0
BBX 10 1 1 -10
BITMAP
9240
ENDCHAR
STARTCHAR 002
ENCODING 2
SWIDTH 864 0
DWIDTH 12 0
BBX 12 17 0 -11
BITMAP
FFF0
FFF0
FFF0
FFF0
FFF0
FFF0
FFF0
FFF0
FFF0
FFF0
FFF0
FFF0
FFF0
FFF0
FFF0
FFF0
FFF0
ENDCHAR
STARTCHAR 003
ENCODING 3
SWIDTH 864 0
DWIDTH 12 0
BBX 11 1 1 -10
BITMAP
DB60
ENDCHAR
STARTCHAR 004
ENCODING 4
SWIDTH 864 0
DWIDTH 12 0
BBX 3 3 5 -10
BITMAP
40
E0
40
ENDCHAR
STARTCHAR 005
ENCODING 5
SWIDTH 864 0
DWIDTH 12 0
BBX 11 3 1 -10
BITMAP
9240
0000
4920
ENDCHAR
STARTCHAR 006
ENCODING 6
SWIDTH 864 0
DWIDTH 12 0
BBX 11 3 1 -10
BITMAP
9240
0500
4220
ENDCHAR
STARTCHAR 007
ENCODING 7
SWIDTH 864 0
DWIDTH 12 0
BBX 10 1 1 -10
BITMAP
F3C0
ENDCHAR
STARTCHAR 008
ENCODING 8
SWIDTH 864 0
DWIDTH 12 0
BBX 12 3 0 -4
BITMAP
2220
5550
8880
ENDCHAR
STARTCHAR 009
ENCODING 9
SWIDTH 864 0
DWIDTH 12 0
BBX 5 3 4 -4
BITMAP
88
D8
70
ENDCHAR
STARTCHAR 010
ENCODING 10
SWIDTH 864 0
DWIDTH 12 0
BBX 12 16 0 -11
BITMAP
FDF0
FDF0
0000
C7F0
EFF0
EFF0
C7F0
0000
FDF0
FDF0
FDF0
0000
C7F0
EFF0
EFF0
C7F0
ENDCHAR
STARTCHAR 011
ENCODING 11
SWIDTH 864 0
DWIDTH 12 0
BBX 12 16 0 -11
BITMAP
FDF0
FDF0
0000
EFF0
EFF0
EFF0
EFF0
0000
FDF0
FDF0
FDF0
0000
EFF0
EFF0
EFF0
EFF0
ENDCHAR
STARTCHAR 012
ENCODING 12
SWIDTH 864 0
DWIDTH 12 0
BBX 12 15 0 -11
BITMAP
FDF0
FD70
0000
EFF0
EFF0
CFF0
EFF0
0000
FDF0
FD70
FDF0
0000
EFF0
CFF0
EFF0
ENDCHAR
STARTCHAR 013
ENCODING 13
SWIDTH 864 0
DWIDTH 12 0
BBX 12 17 0 -11
BITMAP
FFF0
7770
3030
8F80
C050
50D0
50D0
1FD0
CF00
D0D0
5FD0
2FB0
8F00
F070
7770
3330
8880
ENDCHAR
STARTCHAR 014
ENCODING 14
SWIDTH 864 0
DWIDTH 12 0
BBX 12 16 0 -11
BITMAP
0180
11C0
13C0
3AE0
37E0
3FE0
59E0
77D0
EFF0
ED70
DFA0
9F80
1FC0
37C0
7FE0
FFF0
ENDCHAR
STARTCHAR 015
ENCODING 15
SWIDTH 864 0
DWIDTH 12 0
BBX 12 15 0 -11
BITMAP
0E00
1F00
3D00
3F80
3F80
7C80
F380
CDC0
EFE0
1BE0
1FE0
3FE0
3FF0
7FF0
7FF0
ENDCHAR
STARTCHAR 016
ENCODING 16
SWIDTH 864 0
DWIDTH 12 0
BBX 12 17 0 -11
BITMAP
FFF0
FFF0
C9B0
FFF0
E6B0
FFF0
DA70
FFF0
E9B0
FFF0
E6B0
FFF0
DA70
FFF0
E930
FFF0
FFF0
ENDCHAR
STARTCHAR 017
ENCODING 17
SWIDTH 864 0
DWIDTH 12 0
BBX 12 17 0 -11
BITMAP
FFF0
FFF0
C9B0
D370
E6B0
CD30
DA70
F4F0
E9B0
D370
E6B0
CD30
DA70
F4B0
E930
FFF0
FFF0
ENDCHAR
STARTCHAR 018
ENCODING 18
SWIDTH 864 0
DWIDTH 12 0
BBX 12 17 0 -11
BITMAP
FFF0
FFF0
CC30
D430
E430
CC30
DC30
F430
EC30
D430
E430
CC30
DC30
F430
EC30
FFF0
FFF0
ENDCHAR
STARTCHAR 019
ENCODING 19
SWIDTH 864 0
DWIDTH 12 0
BBX 12 17 0 -11
BITMAP
FFF0
FFF0
D270
FFF0
C930
FFF0
FFF0
C030
FFF0
D6F0
FFF0
DE30
FFF0
CF30
FFF0
FFF0
FFF0
ENDCHAR
STARTCHAR 020
ENCODING 20
SWIDTH 864 0
DWIDTH 12 0
BBX 12 17 0 -11
BITMAP
FFF0
FFF0
D270
E4B0
C930
D270
FFF0
C030
C6B0
D6F0
F7B0
DE30
C630
CF30
C630
FFF0
FFF0
ENDCHAR
STARTCHAR 021
ENCODING 21
SWIDTH 864 0
DWIDTH 12 0
BBX 12 17 0 -11
BITMAP
FFF0
FFF0
D430
E430
CC30
D430
FFF0
C030
C6B0
D6F0
F7B0
DE30
C630
CF30
C630
FFF0
FFF0
ENDCHAR
STARTCHAR 022
ENCODING 22
SWIDTH 864 0
DWIDTH 12 0
BBX 12 17 0 -11
BITMAP
8000
4010
0000
2020
1040
0080
0800
0500
0000
0200
0500
0800
0080
1040
0020
0000
4010
ENDCHAR
STARTCHAR 023
ENCODING 23
SWIDTH 864 0
DWIDTH 12 0
BBX 12 17 0 -11
BITMAP
8000
4010
0000
2020
1040
0080
0800
0500
0000
0200
0500
0800
0080
1040
0020
0000
4010
ENDCHAR
STARTCHAR 024
ENCODING 24
SWIDTH 864 0
DWIDTH 12 0
BBX 12 17 0 -11
BITMAP
8000
4010
0000
2020
1040
0080
0800
0500
0000
0200
0500
0800
0080
1040
0020
0000
4010
ENDCHAR
STARTCHAR 025
ENCODING 25
SWIDTH 864 0
DWIDTH 12 0
BBX 12 17 0 -11
BITMAP
8000
4010
0000
2020
1040
0080
0800
0500
0000
0200
0500
0800
0080
1040
0020
0000
4010
ENDCHAR
STARTCHAR 026
ENCODING 26
SWIDTH 864 0
DWIDTH 12 0
BBX 12 17 0 -11
BITMAP
8000
4010
0000
2020
1040
0080
0800
0500
0000
0200
0500
0800
0080
1040
0020
0000
4010
ENDCHAR
STARTCHAR 027
ENCODING 27
SWIDTH 864 0
DWIDTH 12 0
BBX 12 17 0 -11
BITMAP
8000
4010
0000
2020
1040
0080
0800
0500
0000
0200
0500
0800
0080
1040
0020
0000
4010
ENDCHAR
STARTCHAR 028
ENCODING 28
SWIDTH 864 0
DWIDTH 12 0
BBX 12 17 0 -11
BITMAP
8000
4010
0000
2020
1040
0080
0800
0500
0000
0200
0500
0800
0080
1040
0020
0000
4010
ENDCHAR
STARTCHAR 029
ENCODING 29
SWIDTH 864 0
DWIDTH 12 0
BBX 12 17 0 -11
BITMAP
8000
4010
0000
2020
1040
0080
0800
0500
0000
0200
0500
0800
0080
1040
0020
0000
4010
ENDCHAR
STARTCHAR 030
ENCODING 30
SWIDTH 864 0
DWIDTH 12 0
BBX 12 17 0 -11
BITMAP
8000
4010
0000
2020
1040
0080
0800
0500
0000
0200
0500
0800
0080
1040
0020
0000
4010
ENDCHAR
STARTCHAR 031
ENCODING 31
SWIDTH 864 0
DWIDTH 12 0
BBX 12 17 0 -11
BITMAP
8000
4010
0000
2020
1040
0080
0800
0500
0000
0200
0500
0800
0080
1040
0020
0000
4010
ENDCHAR
STARTCHAR 032
ENCODING 32
SWIDTH 864 0
DWIDTH 12 0
BBX 0 0 0 0
BITMAP
ENDCHAR
STARTCHAR 033
ENCODING 33
SWIDTH 864 0
DWIDTH 12 0
BBX 4 13 4 -9
BITMAP
20
70
F0
D0
D0
F0
F0
F0
60
00
00
60
60
ENDCHAR
STARTCHAR 034
ENCODING 34
SWIDTH 864 0
DWIDTH 12 0
BBX 5 3 4 -1
BITMAP
D8
D8
88
ENDCHAR
STARTCHAR 035
ENCODING 35
SWIDTH 864 0
DWIDTH 12 0
BBX 7 8 3 -7
BITMAP
6C
EE
FE
6C
FE
FE
6C
6C
ENDCHAR
STARTCHAR 036
ENCODING 36
SWIDTH 864 0
DWIDTH 12 0
BBX 9 15 2 -11
BITMAP
0400
0C00
3F00
6D80
4C80
6C00
3C00
0F00
0B80
8980
C980
7B00
3E00
1800
1000
ENDCHAR
STARTCHAR 037
ENCODING 37
SWIDTH 864 0
DWIDTH 12 0
BBX 10 11 1 -8
BITMAP
0100
E300
B600
B600
E400
0C00
0B80
1A40
3240
3380
6000
ENDCHAR
STARTCHAR 038
ENCODING 38
SWIDTH 864 0
DWIDTH 12 0
BBX 9 10 2 -8
BITMAP
3E00
2300
2300
3400
3800
6C80
C680
C300
C380
7E80
ENDCHAR
STARTCHAR 039
ENCODING 39
SWIDTH 864 0
DWIDTH 12 0
BBX 3 5 5 -3
BITMAP
E0
E0
E0
40
80
ENDCHAR
STARTCHAR 040
ENCODING 40
SWIDTH 864 0
DWIDTH 12 0
BBX 4 14 4 -10
BITMAP
10
20
60
40
40
C0
C0
C0
C0
40
40
60
20
10
ENDCHAR
STARTCHAR 041
ENCODING 41
SWIDTH 864 0
DWIDTH 12 0
BBX 4 12 4 -9
BITMAP
C0
60
20
20
30
30
30
30
20
20
60
C0
ENDCHAR
STARTCHAR 042
ENCODING 42
SWIDTH 864 0
DWIDTH 12 0
BBX 7 8 3 -7
BITMAP
10
96
D4
38
FE
38
D4
96
ENDCHAR
STARTCHAR 043
ENCODING 43
SWIDTH 864 0
DWIDTH 12 0
BBX 9 8 2 -7
BITMAP
1C00
1C00
1C00
FF80
FF80
1C00
1C00
1C00
ENDCHAR
STARTCHAR 044
ENCODING 44
SWIDTH 864 0
DWIDTH 12 0
BBX 5 6 3 -11
BITMAP
10
38
78
30
60
C0
ENDCHAR
STARTCHAR 045
ENCODING 45
SWIDTH 864 0
DWIDTH 12 0
BBX 9 2 2 -4
BITMAP
FF80
FF80
ENDCHAR
STARTCHAR 046
ENCODING 46
SWIDTH 864 0
DWIDTH 12 0
BBX 3 3 5 -5
BITMAP
E0
E0
E0
ENDCHAR
STARTCHAR 047
ENCODING 47
SWIDTH 864 0
DWIDTH 12 0
BBX 7 11 3 -8
BITMAP
06
0E
0C
08
18
10
30
60
60
C0
80
ENDCHAR
STARTCHAR 048
ENCODING 48
SWIDTH 864 0
DWIDTH 12 0
BBX 7 11 3 -8
BITMAP
1C
3E
76
66
E6
C6
C4
8C
88
D8
F0
ENDCHAR
STARTCHAR 049
ENCODING 49
SWIDTH 864 0
DWIDTH 12 0
BBX 5 11 3 -8
BITMAP
10
30
70
F0
30
30
30
30
30
30
78
ENDCHAR
STARTCHAR 050
ENCODING 50
SWIDTH 864 0
DWIDTH 12 0
BBX 8 11 2 -8
BITMAP
1F
33
63
43
03
06
0C
18
30
73
FF
ENDCHAR
STARTCHAR 051
ENCODING 51
SWIDTH 864 0
DWIDTH 12 0
BBX 8 11 2 -8
BITMAP
0C
3E
27
03
07
0C
06
03
C3
C7
7C
ENDCHAR
STARTCHAR 052
ENCODING 52
SWIDTH 864 0
DWIDTH 12 0
BBX 7 11 3 -8
BITMAP
60
66
66
46
CC
FC
0C
08
08
08
08
ENDCHAR
STARTCHAR 053
ENCODING 53
SWIDTH 864 0
DWIDTH 12 0
BBX 9 10 2 -8
BITMAP
1F80
3000
3000
3800
7C00
0600
0200
8600
C400
7C00
ENDCHAR
STARTCHAR 054
ENCODING 54
SWIDTH 864 0
DWIDTH 12 0
BBX 7 10 3 -8
BITMAP
7C
66
C2
80
B8
EE
86
86
CC
78
ENDCHAR
STARTCHAR 055
ENCODING 55
SWIDTH 864 0
DWIDTH 12 0
BBX 8 10 2 -8
BITMAP
7F
C3
83
06
0C
0C
18
38
38
30
ENDCHAR
STARTCHAR 056
ENCODING 56
SWIDTH 864 0
DWIDTH 12 0
BBX 7 11 3 -8
BITMAP
18
7E
66
66
6C
78
F8
8C
8C
8C
F8
ENDCHAR
STARTCHAR 057
ENCODING 57
SWIDTH 864 0
DWIDTH 12 0
BBX 7 10 3 -8
BITMAP
3E
66
66
66
7E
3E
0C
08
18
F0
ENDCHAR
STARTCHAR 058
ENCODING 58
SWIDTH 864 0
DWIDTH 12 0
BBX 3 7 5 -9
BITMAP
60
E0
40
00
40
E0
60
ENDCHAR
STARTCHAR 059
ENCODING 59
SWIDTH 864 0
DWIDTH 12 0
BBX 4 9 4 -11
BITMAP
30
70
20
00
20
70
30
60
C0
ENDCHAR
STARTCHAR 060
ENCODING 60
SWIDTH 864 0
DWIDTH 12 0
BBX 10 14 1 -10
BITMAP
00C0
06C0
06C0
36C0
36C0
B6C0
B6C0
B6C0
B6C0
36C0
36C0
06C0
06C0
00C0
ENDCHAR
STARTCHAR 061
ENCODING 61
SWIDTH 864 0
DWIDTH 12 0
BBX 9 5 2 -6
BITMAP
FF80
FF80
0000
0000
FF80
ENDCHAR
STARTCHAR 062
ENCODING 62
SWIDTH 864 0
DWIDTH 12 0
BBX 10 14 1 -10
BITMAP
C000
D800
D800
DB00
DB00
DB40
DB40
DB40
DB40
DB00
DB00
D800
D800
C000
ENDCHAR
STARTCHAR 063
ENCODING 63
SWIDTH 864 0
DWIDTH 12 0
BBX 7 13 3 -10
BITMAP
7C
E6
C6
82
06
0C
18
30
30
00
30
70
30
ENDCHAR
STARTCHAR 064
ENCODING 64
SWIDTH 864 0
DWIDTH 12 0
BBX 9 15 2 -11
BITMAP
1C00
1C00
0C00
1C00
3E00
7F00
DD80
DC80
BE80
3E00
3600
3700
3300
3300
6380
ENDCHAR
STARTCHAR 065
ENCODING 65
SWIDTH 864 0
DWIDTH 12 0
BBX 11 13 1 -9
BITMAP
1C00
7E00
4F00
1F80
1980
1980
31C0
31C0
3FC0
60C0
60C0
60E0
F1E0
ENDCHAR
STARTCHAR 066
ENCODING 66
SWIDTH 864 0
DWIDTH 12 0
BBX 9 11 2 -8
BITMAP
F800
7E00
6300
6300
6600
7F00
6180
6180
6300
7F00
7E00
ENDCHAR
STARTCHAR 067
ENCODING 67
SWIDTH 864 0
DWIDTH 12 0
BBX 9 11 2 -8
BITMAP
3F00
7F80
F180
C180
C300
C000
C000
C000
E080
F380
7F00
ENDCHAR
STARTCHAR 068
ENCODING 68
SWIDTH 864 0
DWIDTH 12 0
BBX 11 12 1 -9
BITMAP
7F80
7FC0
60C0
60E0
6060
6060
6060
6060
60E0
61C0
7FC0
FF00
ENDCHAR
STARTCHAR 069
ENCODING 69
SWIDTH 864 0
DWIDTH 12 0
BBX 8 12 2 -9
BITMAP
FF
7F
40
40
40
78
78
40
40
40
7F
7F
ENDCHAR
STARTCHAR 070
ENCODING 70
SWIDTH 864 0
DWIDTH 12 0
BBX 8 12 3 -9
BITMAP
FF
FF
C0
C0
C0
F8
FC
C0
C0
C0
C0
C0
ENDCHAR
STARTCHAR 071
ENCODING 71
SWIDTH 864 0
DWIDTH 12 0
BBX 10 13 1 -9
BITMAP
1E00
7F80
7180
E0C0
C000
C000
C000
C780
C4C0
E0C0
F080
7F80
1F00
ENDCHAR
STARTCHAR 072
ENCODING 72
SWIDTH 864 0
DWIDTH 12 0
BBX 9 12 2 -9
BITMAP
C380
C380
C380
C380
C380
FF80
C380
C380
C380
C380
C380
E380
ENDCHAR
STARTCHAR 073
ENCODING 73
SWIDTH 864 0
DWIDTH 12 0
BBX 5 11 4 -8
BITMAP
F8
20
20
20
20
20
20
20
20
20
F8
ENDCHAR
STARTCHAR 074
ENCODING 74
SWIDTH 864 0
DWIDTH 12 0
BBX 9 13 2 -9
BITMAP
0380
0380
0380
0380
0380
0380
0380
0380
C380
C380
C380
7F00
3E00
ENDCHAR
STARTCHAR 075
ENCODING 75
SWIDTH 864 0
DWIDTH 12 0
BBX 11 13 1 -9
BITMAP
0180
73C0
6300
6600
6600
6C00
7C00
7C00
6E20
6620
6360
63C0
E1C0
ENDCHAR
STARTCHAR 076
ENCODING 76
SWIDTH 864 0
DWIDTH 12 0
BBX 8 11 2 -8
BITMAP
E0
60
60
60
60
60
60
60
61
61
7F
ENDCHAR
STARTCHAR 077
ENCODING 77
SWIDTH 864 0
DWIDTH 12 0
BBX 11 12 0 -9
BITMAP
2040
20C0
31C0
39C0
79E0
6F60
6760
6660
6260
6260
E060
F0E0
ENDCHAR
STARTCHAR 078
ENCODING 78
SWIDTH 864 0
DWIDTH 12 0
BBX 9 12 2 -9
BITMAP
0080
C180
F180
F180
D980
C980
CD80
C780
C380
C380
C380
8000
ENDCHAR
STARTCHAR 079
ENCODING 79
SWIDTH 864 0
DWIDTH 12 0
BBX 10 10 1 -8
BITMAP
7F00
FF80
F180
C0C0
C8C0
C0C0
C0C0
C180
6380
3F00
ENDCHAR
STARTCHAR 080
ENCODING 80
SWIDTH 864 0
DWIDTH 12 0
BBX 9 12 2 -9
BITMAP
FF00
4180
4080
4080
4380
7F00
4000
4000
4000
4000
4000
C000
ENDCHAR
STARTCHAR 081
ENCODING 81
SWIDTH 864 0
DWIDTH 12 0
BBX 11 14 1 -10
BITMAP
3E00
7F00
7F80
C1C0
C1C0
C040
8040
8040
8640
C240
43C0
7FC0
00C0
0020
ENDCHAR
STARTCHAR 082
ENCODING 82
SWIDTH 864 0
DWIDTH 12 0
BBX 10 12 1 -8
BITMAP
FC00
FE00
C700
C300
C300
C700
FC00
CC00
C600
C740
E7C0
E3C0
ENDCHAR
STARTCHAR 083
ENCODING 83
SWIDTH 864 0
DWIDTH 12 0
BBX 10 11 1 -8
BITMAP
1F00
3380
60C0
4000
6000
3F00
0380
0080
C080
6180
3F00
ENDCHAR
STARTCHAR 084
ENCODING 84
SWIDTH 864 0
DWIDTH 12 0
BBX 10 12 1 -8
BITMAP
8040
FFC0
FFC0
1C00
1C00
1C00
1C00
1C00
1C00
1C00
1C00
1C00
ENDCHAR
STARTCHAR 085
ENCODING 85
SWIDTH 864 0
DWIDTH 12 0
BBX 9 11 1 -8
BITMAP
C180
C180
C180
C180
C180
C180
C180
C180
C180
6380
7F00
ENDCHAR
STARTCHAR 086
ENCODING 86
SWIDTH 864 0
DWIDTH 12 0
BBX 11 11 0 -8
BITMAP
F0E0
6060
6040
60C0
20C0
2180
3180
1B00
1A00
1A00
0E00
ENDCHAR
STARTCHAR 087
ENCODING 87
SWIDTH 864 0
DWIDTH 12 0
BBX 10 11 1 -8
BITMAP
C0C0
4080
4080
4080
4080
4080
4C80
5E80
7380
6180
6180
ENDCHAR
STARTCHAR 088
ENCODING 88
SWIDTH 864 0
DWIDTH 12 0
BBX 10 12 1 -8
BITMAP
C0C0
6180
3380
1A00
0E00
0E00
0E00
1A00
3300
6180
6180
C0C0
ENDCHAR
STARTCHAR 089
ENCODING 89
SWIDTH 864 0
DWIDTH 12 0
BBX 10 13 2 -9
BITMAP
C0C0
C080
6180
6300
3300
3600
1C00
0800
0800
0800
0800
0800
1C00
ENDCHAR
STARTCHAR 090
ENCODING 90
SWIDTH 864 0
DWIDTH 12 0
BBX 10 11 1 -8
BITMAP
8000
FF80
0300
0700
0E00
0C00
1800
3000
7040
E040
FF80
ENDCHAR
STARTCHAR 091
ENCODING 91
SWIDTH 864 0
DWIDTH 12 0
BBX 6 14 4 -10
BITMAP
FC
FC
C0
C0
C0
C0
C0
C0
C0
C0
C0
C0
FC
FC
ENDCHAR
STARTCHAR 092
ENCODING 92
SWIDTH 864 0
DWIDTH 12 0
BBX 7 11 3 -8
BITMAP
80
40
40
60
30
30
18
18
0C
0C
06
ENDCHAR
STARTCHAR 093
ENCODING 93
SWIDTH 864 0
DWIDTH 12 0
BBX 5 14 4 -10
BITMAP
F8
F8
18
18
D8
D8
18
18
18
18
18
18
F8
F8
ENDCHAR
STARTCHAR 094
ENCODING 94
SWIDTH 864 0
DWIDTH 12 0
BBX 10 7 1 -4
BITMAP
0C00
0C00
1C00
3E00
7F00
7380
C1C0
ENDCHAR
STARTCHAR 095
ENCODING 95
SWIDTH 864 0
DWIDTH 12 0
BBX 12 2 0 -10
BITMAP
FFF0
FFF0
ENDCHAR
STARTCHAR 096
ENCODING 96
SWIDTH 864 0
DWIDTH 12 0
BBX 2 5 6 -2
BITMAP
C0
C0
40
40
80
ENDCHAR
STARTCHAR 097
ENCODING 97
SWIDTH 864 0
DWIDTH 12 0
BBX 8 7 2 -8
BITMAP
74
FC
CC
8C
8C
CD
76
ENDCHAR
STARTCHAR 098
ENCODING 98
SWIDTH 864 0
DWIDTH 12 0
BBX 9 13 2 -9
BITMAP
3000
3000
F000
3000
3000
3000
3F00
3B00
3180
3180
3380
3F00
C000
ENDCHAR
STARTCHAR 099
ENCODING 99
SWIDTH 864 0
DWIDTH 12 0
BBX 7 7 3 -8
BITMAP
7E
62
C0
C0
C0
E2
7E
ENDCHAR
STARTCHAR 100
ENCODING 100
SWIDTH 864 0
DWIDTH 12 0
BBX 9 12 2 -8
BITMAP
0200
0300
0300
0300
0300
3B00
7F00
4700
C300
C700
C700
7F80
ENDCHAR
STARTCHAR 101
ENCODING 101
SWIDTH 864 0
DWIDTH 12 0
BBX 7 8 3 -8
BITMAP
1C
7E
E6
FC
F0
C0
E0
7E
ENDCHAR
STARTCHAR 102
ENCODING 102
SWIDTH 864 0
DWIDTH 12 0
BBX 7 11 3 -8
BITMAP
1C
16
10
10
10
90
FE
12
10
10
10
ENDCHAR
STARTCHAR 103
ENCODING 103
SWIDTH 864 0
DWIDTH 12 0
BBX 7 12 3 -11
BITMAP
18
3A
66
46
6C
78
1E
3E
E8
88
90
E0
ENDCHAR
STARTCHAR 104
ENCODING 104
SWIDTH 864 0
DWIDTH 12 0
BBX 8 11 3 -9
BITMAP
80
80
80
80
80
98
F8
C8
88
8D
C7
ENDCHAR
STARTCHAR 105
ENCODING 105
SWIDTH 864 0
DWIDTH 12 0
BBX 3 10 5 -8
BITMAP
40
00
00
C0
C0
40
40
40
40
E0
ENDCHAR
STARTCHAR 106
ENCODING 106
SWIDTH 864 0
DWIDTH 12 0
BBX 7 13 3 -11
BITMAP
06
00
00
02
06
06
06
06
06
06
8E
DC
78
ENDCHAR
STARTCHAR 107
ENCODING 107
SWIDTH 864 0
DWIDTH 12 0
BBX 8 11 2 -10
BITMAP
40
C0
47
4D
58
70
58
4C
46
C3
80
ENDCHAR
STARTCHAR 108
ENCODING 108
SWIDTH 864 0
DWIDTH 12 0
BBX 7 12 2 -8
BITMAP
0E
1E
12
16
36
2C
78
70
E0
66
6C
78
ENDCHAR
STARTCHAR 109
ENCODING 109
SWIDTH 864 0
DWIDTH 12 0
BBX 9 7 2 -8
BITMAP
7F80
DD80
C880
8880
8980
8180
8300
ENDCHAR
STARTCHAR 110
ENCODING 110
SWIDTH 864 0
DWIDTH 12 0
BBX 10 8 1 -8
BITMAP
2000
7C00
BE00
2600
2600
2640
2740
63C0
ENDCHAR
STARTCHAR 111
ENCODING 111
SWIDTH 864 0
DWIDTH 12 0
BBX 7 7 2 -8
BITMAP
3C
E6
82
8A
82
C6
7E
ENDCHAR
STARTCHAR 112
ENCODING 112
SWIDTH 864 0
DWIDTH 12 0
BBX 6 8 3 -10
BITMAP
FC
84
8C
F8
80
80
80
80
ENDCHAR
STARTCHAR 113
ENCODING 113
SWIDTH 864 0
DWIDTH 12 0
BBX 8 10 2 -11
BITMAP
02
7E
C6
86
CE
FE
76
06
06
07
ENDCHAR
STARTCHAR 114
ENCODING 114
SWIDTH 864 0
DWIDTH 12 0
BBX 7 8 3 -9
BITMAP
60
7C
EE
C0
C0
C0
C0
80
ENDCHAR
STARTCHAR 115
ENCODING 115
SWIDTH 864 0
DWIDTH 12 0
BBX 7 8 2 -9
BITMAP
3C
66
60
38
0C
04
CC
78
ENDCHAR
STARTCHAR 116
ENCODING 116
SWIDTH 864 0
DWIDTH 12 0
BBX 7 10 2 -8
BITMAP
30
30
30
FC
3E
30
30
30
32
3E
ENDCHAR
STARTCHAR 117
ENCODING 117
SWIDTH 864 0
DWIDTH 12 0
BBX 8 7 2 -8
BITMAP
C3
C3
C3
C3
C3
66
7E
ENDCHAR
STARTCHAR 118
ENCODING 118
SWIDTH 864 0
DWIDTH 12 0
BBX 9 7 1 -8
BITMAP
C080
4180
6300
3300
1600
1E00
0C00
ENDCHAR
STARTCHAR 119
ENCODING 119
SWIDTH 864 0
DWIDTH 12 0
BBX 11 7 0 -8
BITMAP
C020
4060
6040
2EC0
2A80
3B80
1980
ENDCHAR
STARTCHAR 120
ENCODING 120
SWIDTH 864 0
DWIDTH 12 0
BBX 7 8 3 -8
BITMAP
82
C6
6C
38
30
38
6C
C4
ENDCHAR
STARTCHAR 121
ENCODING 121
SWIDTH 864 0
DWIDTH 12 0
BBX 9 10 2 -11
BITMAP
C180
4100
6300
3300
1E00
0C00
0C00
1800
3000
6000
ENDCHAR
STARTCHAR 122
ENCODING 122
SWIDTH 864 0
DWIDTH 12 0
BBX 8 7 2 -8
BITMAP
FF
06
0C
18
70
60
FF
ENDCHAR
STARTCHAR 123
ENCODING 123
SWIDTH 864 0
DWIDTH 12 0
BBX 5 13 4 -10
BITMAP
38
20
20
20
20
60
C0
60
20
20
20
20
38
ENDCHAR
STARTCHAR 124
ENCODING 124
SWIDTH 864 0
DWIDTH 12 0
BBX 1 13 6 -10
BITMAP
80
80
80
80
80
80
80
80
80
80
80
80
80
ENDCHAR
STARTCHAR 125
ENCODING 125
SWIDTH 864 0
DWIDTH 12 0
BBX 6 14 3 -10
BITMAP
E0
30
10
10
10
18
0C
18
10
10
10
10
30
E0
ENDCHAR
STARTCHAR 126
ENCODING 126
SWIDTH 864 0
DWIDTH 12 0
BBX 9 7 1 -8
BITMAP
3080
7D80
C700
0000
7980
CF80
C700
ENDCHAR
STARTCHAR 127
ENCODING 127
SWIDTH 864 0
DWIDTH 12 0
BBX 12 17 0 -11
BITMAP
FFF0
FFF0
FFF0
FFF0
FFF0
FFF0
FFF0
FFF0
FFF0
FFF0
FFF0
FFF0
FFF0
FFF0
FFF0
FFF0
FFF0
ENDCHAR
STARTCHAR 128
ENCODING 128
SWIDTH 864 0
DWIDTH 12 0
BBX 12 15 0 -11
BITMAP
FFF0
E030
CF90
8710
9050
1740
1040
9540
1500
1560
1500
1540
1540
9540
1540
ENDCHAR
STARTCHAR 129
ENCODING 129
SWIDTH 864 0
DWIDTH 12 0
BBX 4 15 1 -11
BITMAP
C0
C0
C0
C0
C0
C0
C0
F0
F0
C0
C0
C0
C0
C0
C0
ENDCHAR
STARTCHAR 130
ENCODING 130
SWIDTH 864 0
DWIDTH 12 0
BBX 10 12 1 -9
BITMAP
E3C0
C0C0
C0C0
C0C0
C0C0
C0C0
C0C0
C0C0
C1C0
E380
7F80
3E00
ENDCHAR
STARTCHAR 131
ENCODING 131
SWIDTH 864 0
DWIDTH 12 0
BBX 10 14 1 -10
BITMAP
1C00
1C00
1400
0800
1C00
3F00
7F80
DCC0
1C00
3E00
3E00
0800
0800
0800
ENDCHAR
STARTCHAR 132
ENCODING 132
SWIDTH 864 0
DWIDTH 12 0
BBX 9 9 1 -7
BITMAP
0800
0800
2A00
2A00
AA80
2A00
2A00
0800
0800
ENDCHAR
STARTCHAR 133
ENCODING 133
SWIDTH 864 0
DWIDTH 12 0
BBX 8 14 3 -11
BITMAP
3C
6E
FD
9D
FE
77
9D
FE
ED
6B
7C
10
10
10
ENDCHAR
STARTCHAR 134
ENCODING 134
SWIDTH 864 0
DWIDTH 12 0
BBX 9 10 2 -11
BITMAP
1000
7700
8E00
7D00
AF00
9B00
7F80
F480
0900
0800
ENDCHAR
STARTCHAR 135
ENCODING 135
SWIDTH 864 0
DWIDTH 12 0
BBX 9 14 2 -11
BITMAP
4B00
1C00
5300
2600
B880
BB00
2C80
CB00
3800
CC00
0800
0800
0800
0800
ENDCHAR
STARTCHAR 136
ENCODING 136
SWIDTH 864 0
DWIDTH 12 0
BBX 12 17 0 -11
BITMAP
1210
1200
E060
6D80
1020
F190
F190
0E40
D0A0
2A10
D930
0140
2E80
D2B0
0140
0D60
22B0
ENDCHAR
STARTCHAR 137
ENCODING 137
SWIDTH 864 0
DWIDTH 12 0
BBX 11 17 1 -11
BITMAP
8000
0420
8000
1080
9000
8100
A000
0200
C000
8820
8840
C100
4200
2420
9080
4500
AC00
ENDCHAR
STARTCHAR 138
ENCODING 138
SWIDTH 864 0
DWIDTH 12 0
BBX 12 4 0 -4
BITMAP
2220
7770
DDD0
8880
ENDCHAR
STARTCHAR 139
ENCODING 139
SWIDTH 864 0
DWIDTH 12 0
BBX 11 14 1 -11
BITMAP
0040
0000
8000
0000
3B80
7FE0
4E40
0400
0400
8400
3F80
4460
4060
7FC0
ENDCHAR
STARTCHAR 140
ENCODING 140
SWIDTH 864 0
DWIDTH 12 0
BBX 12 11 0 -11
BITMAP
00E0
01A0
0F30
31D0
7D30
F230
D3E0
DFF0
5120
FE00
1D20
ENDCHAR
STARTCHAR 141
ENCODING 141
SWIDTH 864 0
DWIDTH 12 0
BBX 12 17 0 -11
BITMAP
2A20
2A30
3E60
1C30
1C60
1C20
3F70
7F20
7FB0
7FE0
FEE0
FAC0
CF20
FF80
FE80
D580
AA80
ENDCHAR
STARTCHAR 142
ENCODING 142
SWIDTH 864 0
DWIDTH 12 0
BBX 12 14 0 -11
BITMAP
0700
1FC0
3FE0
DFD0
EFB0
FAF0
FDF0
FDF0
FDF0
FDF0
7DF0
1DE0
0D80
0200
ENDCHAR
STARTCHAR 143
ENCODING 143
SWIDTH 864 0
DWIDTH 12 0
BBX 12 17 0 -11
BITMAP
8000
4010
0000
2020
1040
0080
0800
0500
0000
0200
0500
0800
0080
1040
0020
0000
4010
ENDCHAR
STARTCHAR 144
ENCODING 144
SWIDTH 864 0
DWIDTH 12 0
BBX 12 17 0 -11
BITMAP
8000
4010
0000
2020
1040
0080
0800
0500
0000
0200
0500
0800
0080
1040
0020
0000
4010
ENDCHAR
STARTCHAR 145
ENCODING 145
SWIDTH 864 0
DWIDTH 12 0
BBX 12 17 0 -11
BITMAP
B770
FEF0
7FD0
EFF0
FAF0
FFB0
DFF0
FBF0
7FF0
F5F0
FF30
EF30
FFF0
FFD0
EFF0
FFB0
F7F0
ENDCHAR
STARTCHAR 146
ENCODING 146
SWIDTH 864 0
DWIDTH 12 0
BBX 12 17 0 -11
BITMAP
FFF0
7770
3330
8880
FFF0
7770
7770
3330
CCC0
FFF0
7770
3330
8880
FFF0
7770
3330
8880
ENDCHAR
STARTCHAR 147
ENCODING 147
SWIDTH 864 0
DWIDTH 12 0
BBX 9 12 2 -9
BITMAP
0800
0800
1C00
1E00
2A00
5D00
7F80
D780
2580
7A00
2E00
1C00
ENDCHAR
STARTCHAR 148
ENCODING 148
SWIDTH 864 0
DWIDTH 12 0
BBX 12 16 0 -11
BITMAP
34A0
7AF0
39F0
0000
F3F0
F9F0
FBD0
0000
5DC0
FDE0
7DE0
B0B0
0000
71F0
3DF0
0970
ENDCHAR
STARTCHAR 149
ENCODING 149
SWIDTH 864 0
DWIDTH 12 0
BBX 12 17 0 -11
BITMAP
F7B0
7770
9AD0
7DA0
1D50
F670
7E70
7F10
FFB0
EFA0
6670
75D0
FCD0
9360
6F50
9D20
E5D0
ENDCHAR
STARTCHAR 150
ENCODING 150
SWIDTH 864 0
DWIDTH 12 0
BBX 12 16 0 -11
BITMAP
DCF0
F9D0
0020
C380
6770
EDF0
87B0
0000
ED70
FDF0
78C0
0000
4760
ADF0
EFF0
C3B0
ENDCHAR
STARTCHAR 151
ENCODING 151
SWIDTH 864 0
DWIDTH 12 0
BBX 11 8 1 -7
BITMAP
3020
78C0
FFA0
CF40
B380
4820
BCC0
C7C0
ENDCHAR
STARTCHAR 152
ENCODING 152
SWIDTH 864 0
DWIDTH 12 0
BBX 12 13 0 -10
BITMAP
0010
0030
0070
00E0
01C0
0380
0700
2E00
1C00
1800
3400
6000
C000
ENDCHAR
STARTCHAR 153
ENCODING 153
SWIDTH 864 0
DWIDTH 12 0
BBX 10 16 1 -11
BITMAP
C000
6000
7800
3E00
3F80
3380
3180
3380
3F00
30C0
3040
30C0
1F80
3F00
7800
E000
ENDCHAR
STARTCHAR 154
ENCODING 154
SWIDTH 864 0
DWIDTH 12 0
BBX 10 12 1 -9
BITMAP
0080
3F80
7F80
F780
FB80
E000
C000
C000
C800
FCC0
FF80
7F00
ENDCHAR
STARTCHAR 155
ENCODING 155
SWIDTH 864 0
DWIDTH 12 0
BBX 11 13 0 -11
BITMAP
3F80
3FC0
39C0
38E0
7860
D860
D860
7860
3860
38E0
39C0
3F80
3E00
ENDCHAR
STARTCHAR 156
ENCODING 156
SWIDTH 864 0
DWIDTH 12 0
BBX 12 13 0 -11
BITMAP
FFC0
34E0
1CF0
1C30
1C30
1C30
1C30
1C30
1C30
1C30
1CF0
37E0
FFC0
ENDCHAR
STARTCHAR 157
ENCODING 157
SWIDTH 864 0
DWIDTH 12 0
BBX 12 17 0 -11
BITMAP
8000
4010
0000
2020
1040
0080
0800
0500
0000
0200
0500
0800
0080
1040
0020
0000
4010
ENDCHAR
STARTCHAR 158
ENCODING 158
SWIDTH 864 0
DWIDTH 12 0
BBX 8 17 2 -11
BITMAP
08
08
18
10
30
60
41
FF
82
04
04
08
08
18
58
60
70
ENDCHAR
STARTCHAR 159
ENCODING 159
SWIDTH 864 0
DWIDTH 12 0
BBX 12 13 0 -9
BITMAP
4200
2C20
2C20
2BC0
0AB0
CF20
2D50
1D50
2720
1F60
3C90
0AD0
1B60
ENDCHAR
STARTCHAR 160
ENCODING 160
SWIDTH 864 0
DWIDTH 12 0
BBX 11 14 0 -10
BITMAP
0E00
0E00
CE20
0000
60E0
7EE0
1E00
1E00
0000
30C0
30C0
0000
70E0
00E0
ENDCHAR
STARTCHAR 161
ENCODING 161
SWIDTH 864 0
DWIDTH 12 0
BBX 12 15 0 -10
BITMAP
8710
4F90
6720
3FC0
2FE0
3AB0
FAB0
C890
6F90
1FB0
1CE0
1CC0
08A0
38E0
3890
ENDCHAR
STARTCHAR 162
ENCODING 162
SWIDTH 864 0
DWIDTH 12 0
BBX 12 17 0 -11
BITMAP
0380
04A0
38F0
6030
E330
F370
7370
3CE0
0FC0
0FC0
1FC0
7FE0
7FF0
30F0
3060
10C0
20E0
ENDCHAR
STARTCHAR 163
ENCODING 163
SWIDTH 864 0
DWIDTH 12 0
BBX 11 16 1 -11
BITMAP
0180
01A0
00E0
0060
0060
0060
0060
60E0
79E0
FFE0
DFE0
FFC0
E7C0
BF80
7E00
3800
ENDCHAR
STARTCHAR 164
ENCODING 164
SWIDTH 864 0
DWIDTH 12 0
BBX 12 16 0 -10
BITMAP
1C00
F800
DE00
9E00
2C00
1200
1E00
5CD0
CC40
7400
0E00
3F00
3F00
7F00
CF80
2000
ENDCHAR
STARTCHAR 165
ENCODING 165
SWIDTH 864 0
DWIDTH 12 0
BBX 12 16 0 -10
BITMAP
0600
0900
0600
0000
3660
76E0
70F0
F570
E7B0
FAF0
D7F0
5FF0
5F70
5F10
0D00
1DC0
ENDCHAR
STARTCHAR 166
ENCODING 166
SWIDTH 864 0
DWIDTH 12 0
BBX 12 16 0 -11
BITMAP
0070
02E0
0FE0
0DF0
0DE0
0BE0
1370
17E0
3FC0
EDC0
1E00
1F00
0FC0
17F0
31E0
2800
ENDCHAR
STARTCHAR 167
ENCODING 167
SWIDTH 864 0
DWIDTH 12 0
BBX 12 11 0 -9
BITMAP
5000
F000
F030
7C10
7F90
7FF0
3FE0
3EE0
26B0
2490
24B0
ENDCHAR
STARTCHAR 168
ENCODING 168
SWIDTH 864 0
DWIDTH 12 0
BBX 12 15 0 -11
BITMAP
0E00
0B70
06E0
A6F0
E6C0
77B0
3F30
1F60
1FE0
0FC0
0780
03C0
19C0
3FF0
3770
ENDCHAR
STARTCHAR 169
ENCODING 169
SWIDTH 864 0
DWIDTH 12 0
BBX 12 14 0 -10
BITMAP
28A0
AFA0
AAA0
AFA0
EA70
A2E0
F770
ED70
2F20
6770
2F60
2FE0
0740
28E0
ENDCHAR
STARTCHAR 170
ENCODING 170
SWIDTH 864 0
DWIDTH 12 0
BBX 11 17 1 -11
BITMAP
0600
7FC0
F9E0
1540
0A80
1540
18C0
18C0
4020
2E40
5F80
2680
3580
1F00
0E00
0E00
0E00
ENDCHAR
STARTCHAR 171
ENCODING 171
SWIDTH 864 0
DWIDTH 12 0
BBX 12 14 0 -10
BITMAP
1000
2220
9240
4F80
4F80
30E0
1040
72C0
90C0
19D0
3F80
2240
4620
0400
ENDCHAR
STARTCHAR 172
ENCODING 172
SWIDTH 864 0
DWIDTH 12 0
BBX 8 14 3 -10
BITMAP
1F
71
63
63
7F
7B
56
3A
4C
78
38
70
C0
80
ENDCHAR
STARTCHAR 173
ENCODING 173
SWIDTH 864 0
DWIDTH 12 0
BBX 12 10 0 -10
BITMAP
0020
0030
2810
7810
7DD0
3FF0
7FF0
3FF0
ECD0
91D0
ENDCHAR
STARTCHAR 174
ENCODING 174
SWIDTH 864 0
DWIDTH 12 0
BBX 12 13 0 -10
BITMAP
01E0
0210
04B0
0C10
1190
1190
3810
5030
90C0
3860
0520
3420
5000
ENDCHAR
STARTCHAR 175
ENCODING 175
SWIDTH 864 0
DWIDTH 12 0
BBX 12 13 0 -11
BITMAP
0300
0F90
0390
0310
1E10
3D50
3CD0
7C30
7C50
FD20
FDD0
F0C0
1060
ENDCHAR
STARTCHAR 176
ENCODING 176
SWIDTH 864 0
DWIDTH 12 0
BBX 7 14 3 -11
BITMAP
30
70
70
30
1C
1E
1A
3A
5A
1A
3A
48
48
88
ENDCHAR
STARTCHAR 177
ENCODING 177
SWIDTH 864 0
DWIDTH 12 0
BBX 11 16 1 -10
BITMAP
00E0
00E0
00E0
0880
1480
1480
1C80
7E80
DBC0
D7C0
DE00
DE00
E000
3E00
3600
7700
ENDCHAR
STARTCHAR 178
ENCODING 178
SWIDTH 864 0
DWIDTH 12 0
BBX 10 15 2 -10
BITMAP
0040
4840
3080
1880
3100
3A00
3C00
3C00
3C00
3C00
6400
6400
4400
4400
C600
ENDCHAR
STARTCHAR 179
ENCODING 179
SWIDTH 864 0
DWIDTH 12 0
BBX 12 16 0 -10
BITMAP
1040
1040
18C0
0700
0600
0B40
2A50
7030
CCD0
6020
6020
0840
1CE0
1860
0000
2010
ENDCHAR
STARTCHAR 180
ENCODING 180
SWIDTH 864 0
DWIDTH 12 0
BBX 11 15 1 -11
BITMAP
0600
0040
0060
1DE0
7FA0
7FE0
FCE0
D9C0
D3C0
C7C0
FF80
7F80
79A0
2000
8000
ENDCHAR
STARTCHAR 181
ENCODING 181
SWIDTH 864 0
DWIDTH 12 0
BBX 12 12 0 -9
BITMAP
1C10
7FF0
FFE0
6000
70E0
3FF0
1C30
0030
7FE0
DFF0
F800
7000
ENDCHAR
STARTCHAR 182
ENCODING 182
SWIDTH 864 0
DWIDTH 12 0
BBX 12 14 0 -10
BITMAP
42A0
A3E0
42A0
43E0
4360
5FF0
7930
4180
47E0
4770
4C30
4C20
4C20
5830
ENDCHAR
STARTCHAR 183
ENCODING 183
SWIDTH 864 0
DWIDTH 12 0
BBX 12 17 0 -11
BITMAP
8B90
6A20
3FC0
0AE0
FFF0
8700
0600
0F80
3FE0
6630
4600
0F00
1F80
3FC0
7FE0
23F0
10C0
ENDCHAR
STARTCHAR 184
ENCODING 184
SWIDTH 864 0
DWIDTH 12 0
BBX 9 10 2 -8
BITMAP
ED80
5300
6F00
7D00
A680
6500
BE80
5300
ED80
9080
ENDCHAR
STARTCHAR 185
ENCODING 185
SWIDTH 864 0
DWIDTH 12 0
BBX 12 15 0 -11
BITMAP
0480
C300
2300
3470
0750
2FB0
6FD0
CD10
F6D0
3FE0
1DC0
00E0
1060
1060
3030
ENDCHAR
STARTCHAR 186
ENCODING 186
SWIDTH 864 0
DWIDTH 12 0
BBX 11 15 0 -11
BITMAP
0020
0C20
1A20
1320
3220
4D20
0420
B3E0
0D20
E0A0
00A0
40A0
E2A0
FFA0
0020
ENDCHAR
STARTCHAR 187
ENCODING 187
SWIDTH 864 0
DWIDTH 12 0
BBX 11 14 0 -10
BITMAP
0100
0300
0780
0EC0
8EC0
5FE0
3FA0
33E0
0FC0
0FC0
0FC0
0FC0
0FE0
1820
ENDCHAR
STARTCHAR 188
ENCODING 188
SWIDTH 864 0
DWIDTH 12 0
BBX 12 15 0 -11
BITMAP
C600
4800
3600
2A00
2EE0
6DF0
03F0
2B70
1230
12E0
4560
3140
2080
41C0
E0E0
ENDCHAR
STARTCHAR 189
ENCODING 189
SWIDTH 864 0
DWIDTH 12 0
BBX 12 17 0 -11
BITMAP
2100
2100
2BA0
5EE0
7EE0
7060
6030
D890
78F0
38F0
10D0
36C0
36C0
1FC0
3FC0
2900
4920
ENDCHAR
STARTCHAR 190
ENCODING 190
SWIDTH 864 0
DWIDTH 12 0
BBX 12 17 0 -11
BITMAP
03E0
02A0
03E0
3F20
37E0
EFB0
E030
D230
8530
F910
0DC0
20C0
2AC0
3FE0
F6F0
F0F0
3000
ENDCHAR
STARTCHAR 191
ENCODING 191
SWIDTH 864 0
DWIDTH 12 0
BBX 12 15 0 -10
BITMAP
0010
0070
01F0
00E0
0FF0
1FF0
7F80
FFC0
FFC0
FFE0
FF60
DF70
D300
DD80
6800
ENDCHAR
STARTCHAR 192
ENCODING 192
SWIDTH 864 0
DWIDTH 12 0
BBX 12 15 0 -10
BITMAP
0100
03C0
C3E0
6760
2310
23B0
27D0
2F90
1F00
0F00
0E00
1A00
0900
0480
0200
ENDCHAR
STARTCHAR 193
ENCODING 193
SWIDTH 864 0
DWIDTH 12 0
BBX 12 14 0 -11
BITMAP
1FC0
7FE0
FFE0
FFE0
FFE0
F0E0
F0E0
F2E0
F1E0
7F20
7F20
3FF0
0030
0010
ENDCHAR
STARTCHAR 194
ENCODING 194
SWIDTH 864 0
DWIDTH 12 0
BBX 12 9 0 -11
BITMAP
1000
33E0
FFE0
1FF0
0FF0
01F0
0090
0010
0030
ENDCHAR
STARTCHAR 195
ENCODING 195
SWIDTH 864 0
DWIDTH 12 0
BBX 12 16 0 -11
BITMAP
1E60
7B30
FF90
DFD0
3FD0
F3D0
03D0
0FD0
1BF0
13F0
03F0
07E0
0FC0
0EC0
0640
0CC0
ENDCHAR
STARTCHAR 196
ENCODING 196
SWIDTH 864 0
DWIDTH 12 0
BBX 11 16 1 -11
BITMAP
7800
EC00
3E00
FF00
3F00
7F20
CF60
BF40
2FC0
0FC0
0F80
1F80
3F00
3B00
1900
3300
ENDCHAR
STARTCHAR 197
ENCODING 197
SWIDTH 864 0
DWIDTH 12 0
BBX 12 16 0 -11
BITMAP
0700
0700
6730
C700
9220
4210
0DB0
0220
0F80
0200
0D80
0000
0500
0500
0500
0880
ENDCHAR
STARTCHAR 198
ENCODING 198
SWIDTH 864 0
DWIDTH 12 0
BBX 12 16 0 -11
BITMAP
0E00
0700
7900
0D00
67F0
FFF0
8DF0
3AE0
2DF0
67F0
C310
C790
06B0
04A0
04A0
04A0
ENDCHAR
STARTCHAR 199
ENCODING 199
SWIDTH 864 0
DWIDTH 12 0
BBX 12 15 0 -10
BITMAP
0300
0780
0300
1840
2FE0
3FB0
F8B0
CD90
6D90
1FB0
1CE0
1CC0
08A0
38E0
3890
ENDCHAR
STARTCHAR 200
ENCODING 200
SWIDTH 864 0
DWIDTH 12 0
BBX 9 10 2 -10
BITMAP
7F00
DD00
E300
A380
8180
E280
E380
E380
CB80
7F00
ENDCHAR
STARTCHAR 201
ENCODING 201
SWIDTH 864 0
DWIDTH 12 0
BBX 12 16 0 -11
BITMAP
0500
2520
5D50
8A90
F050
4760
A060
9650
C730
2900
0800
08C0
0C00
04E0
0440
0480
ENDCHAR
STARTCHAR 202
ENCODING 202
SWIDTH 864 0
DWIDTH 12 0
BBX 10 14 0 -10
BITMAP
0A00
0500
07C0
CF80
4F80
5F40
7C00
3E00
3F00
0D80
0480
0880
0900
1000
ENDCHAR
STARTCHAR 203
ENCODING 203
SWIDTH 864 0
DWIDTH 12 0
BBX 11 17 1 -11
BITMAP
0E00
1100
2A80
E0E0
EEE0
6AC0
2080
2080
3180
2A80
2480
2480
2080
2080
4A40
F1E0
1B00
ENDCHAR
STARTCHAR 204
ENCODING 204
SWIDTH 864 0
DWIDTH 12 0
BBX 12 15 0 -11
BITMAP
03C0
0FC0
0CC0
08C0
1FC0
3FE0
67D0
CFD0
CFC0
0FC0
0FC0
1FE0
1FE0
3FE0
03E0
ENDCHAR
STARTCHAR 205
ENCODING 205
SWIDTH 864 0
DWIDTH 12 0
BBX 11 17 1 -11
BITMAP
2A60
2A40
3E60
3640
2260
2A40
3E60
7940
7FE0
FFC0
FEE0
EE40
EE40
FE00
FE00
6200
7380
ENDCHAR
STARTCHAR 206
ENCODING 206
SWIDTH 864 0
DWIDTH 12 0
BBX 12 17 0 -11
BITMAP
7E00
5BF0
7FF0
7DD0
3EB0
2F70
3370
2370
33E0
33E0
6B40
C760
C430
EE30
6C30
CC20
1C20
ENDCHAR
STARTCHAR 207
ENCODING 207
SWIDTH 864 0
DWIDTH 12 0
BBX 12 12 0 -8
BITMAP
2000
3C00
0600
FF80
FFC0
1FF0
FFF0
1FF0
FEF0
1010
7000
E000
ENDCHAR
STARTCHAR 208
ENCODING 208
SWIDTH 864 0
DWIDTH 12 0
BBX 12 16 0 -11
BITMAP
0400
0A00
0600
8B10
7510
CBF0
7280
0D00
0B00
0E80
0580
0D00
0C00
0900
0D00
18C0
ENDCHAR
STARTCHAR 209
ENCODING 209
SWIDTH 864 0
DWIDTH 12 0
BBX 11 14 0 -10
BITMAP
FF80
6FC0
39E0
38E0
38E0
F8E0
68E0
38E0
38E0
38E0
F8E0
69C0
3F80
3F00
ENDCHAR
STARTCHAR 210
ENCODING 210
SWIDTH 864 0
DWIDTH 12 0
BBX 12 16 0 -11
BITMAP
FF00
37C0
17E0
1CF0
7C70
3430
1430
1C30
7C30
3430
1430
1C30
7CF0
37E0
17C0
1F00
ENDCHAR
STARTCHAR 211
ENCODING 211
SWIDTH 864 0
DWIDTH 12 0
BBX 9 13 2 -9
BITMAP
FF00
6380
6180
6180
6B80
6180
6180
6980
6180
6380
7F80
FF00
5280
ENDCHAR
STARTCHAR 212
ENCODING 212
SWIDTH 864 0
DWIDTH 12 0
BBX 12 15 0 -11
BITMAP
3FC0
F8E0
D870
DAF0
9AF0
9870
1870
1B70
1870
38E0
3FE0
FFE0
28B0
6C90
C580
ENDCHAR
STARTCHAR 213
ENCODING 213
SWIDTH 864 0
DWIDTH 12 0
BBX 12 12 0 -9
BITMAP
FFC0
7FE0
3070
3270
F230
7230
3730
3230
F070
70F0
3FE0
7F80
ENDCHAR
STARTCHAR 214
ENCODING 214
SWIDTH 864 0
DWIDTH 12 0
BBX 10 13 1 -10
BITMAP
0400
0E00
1F00
3B80
70C0
F180
DF00
C600
4400
7080
3B00
1E00
0C00
ENDCHAR
STARTCHAR 215
ENCODING 215
SWIDTH 864 0
DWIDTH 12 0
BBX 9 14 1 -10
BITMAP
2000
7E00
FF00
C180
C180
C000
D400
FE00
C400
C000
C000
FF00
FF00
1E00
ENDCHAR
STARTCHAR 216
ENCODING 216
SWIDTH 864 0
DWIDTH 12 0
BBX 9 15 2 -11
BITMAP
0800
1C00
7E00
E700
E380
E380
7700
3E00
1F00
3E00
3400
6400
6C00
7800
1000
ENDCHAR
STARTCHAR 217
ENCODING 217
SWIDTH 864 0
DWIDTH 12 0
BBX 10 14 1 -9
BITMAP
0040
1EC0
7FC0
71C0
C0C0
C040
C000
C100
C780
CFC0
E0C0
F0C0
7F80
FF00
ENDCHAR
STARTCHAR 218
ENCODING 218
SWIDTH 864 0
DWIDTH 12 0
BBX 10 12 1 -9
BITMAP
2000
2000
6300
E300
2000
2000
2C00
3E00
2600
2640
2740
73C0
ENDCHAR
STARTCHAR 219
ENCODING 219
SWIDTH 864 0
DWIDTH 12 0
BBX 10 13 1 -9
BITMAP
0200
2700
2400
6200
E100
2700
2200
2000
3C00
2600
2640
2740
7380
ENDCHAR
STARTCHAR 220
ENCODING 220
SWIDTH 864 0
DWIDTH 12 0
BBX 11 14 1 -10
BITMAP
3000
71C0
E180
61C0
20C0
20C0
7FC0
7F80
21C0
20C0
60C0
61C0
F1E0
3080
ENDCHAR
STARTCHAR 221
ENCODING 221
SWIDTH 864 0
DWIDTH 12 0
BBX 10 14 1 -11
BITMAP
0080
02C0
0180
0000
0000
0180
0180
0180
0180
0380
E380
F780
7600
1E00
ENDCHAR
STARTCHAR 222
ENCODING 222
SWIDTH 864 0
DWIDTH 12 0
BBX 12 13 0 -9
BITMAP
07F0
03F0
01E0
00C0
00C0
00C0
00C0
FCC0
F8C0
70C0
31C0
3B80
1F00
ENDCHAR
STARTCHAR 223
ENCODING 223
SWIDTH 864 0
DWIDTH 12 0
BBX 11 14 0 -10
BITMAP
FC00
7C00
3400
1C00
1C00
1400
1C00
1C00
1400
1C20
1460
1FE0
3AE0
7FE0
ENDCHAR
STARTCHAR 224
ENCODING 224
SWIDTH 864 0
DWIDTH 12 0
BBX 12 14 0 -10
BITMAP
FF80
3F00
1E00
1E00
1E00
1E00
1E00
1E00
1E10
1E30
1E30
1FF0
3FF0
7FF0
ENDCHAR
STARTCHAR 225
ENCODING 225
SWIDTH 864 0
DWIDTH 12 0
BBX 9 10 1 -11
BITMAP
FE00
7F80
3180
3180
3F00
3E00
2000
2000
2000
2000
ENDCHAR
STARTCHAR 226
ENCODING 226
SWIDTH 864 0
DWIDTH 12 0
BBX 10 12 1 -11
BITMAP
FF80
7F80
38C0
38C0
F8C0
78C0
3FC0
3F80
3800
3000
3000
2000
ENDCHAR
STARTCHAR 227
ENCODING 227
SWIDTH 864 0
DWIDTH 12 0
BBX 11 12 0 -11
BITMAP
FFC0
6FE0
3CE0
3CE0
ECE0
7FC0
3F80
3C00
EC00
3C00
3C00
3000
ENDCHAR
STARTCHAR 228
ENCODING 228
SWIDTH 864 0
DWIDTH 12 0
BBX 11 14 1 -11
BITMAP
8420
4040
2480
0000
7F80
7BC0
39C0
3980
3F00
3000
3000
3000
3000
3000
ENDCHAR
STARTCHAR 229
ENCODING 229
SWIDTH 864 0
DWIDTH 12 0
BBX 11 15 0 -11
BITMAP
1C20
3260
21C0
0000
0000
FFE0
3CE0
1CE0
FCE0
3CE0
1FE0
FFE0
3C00
1C00
1C00
ENDCHAR
STARTCHAR 230
ENCODING 230
SWIDTH 864 0
DWIDTH 12 0
BBX 8 12 2 -10
BITMAP
7E
00
00
00
FF
63
63
63
7E
40
40
40
ENDCHAR
STARTCHAR 231
ENCODING 231
SWIDTH 864 0
DWIDTH 12 0
BBX 10 14 1 -11
BITMAP
3F00
0000
FF80
7F80
38C0
38C0
F8C0
78C0
3FC0
3F80
3800
3800
3000
2000
ENDCHAR
STARTCHAR 232
ENCODING 232
SWIDTH 864 0
DWIDTH 12 0
BBX 12 14 0 -10
BITMAP
FF80
FFC0
DFC0
98E0
18E0
1830
1FF0
1FF0
1800
1800
1800
1800
3800
F800
ENDCHAR
STARTCHAR 233
ENCODING 233
SWIDTH 864 0
DWIDTH 12 0
BBX 10 13 2 -11
BITMAP
0100
0300
0300
3F00
7F00
E300
C300
F700
FF00
7B00
0340
0380
0300
ENDCHAR
STARTCHAR 234
ENCODING 234
SWIDTH 864 0
DWIDTH 12 0
BBX 11 16 1 -11
BITMAP
8000
C000
FE00
7F80
73C0
61C0
C0C0
C060
C060
C060
C260
C260
63C0
7FC0
3F60
0020
ENDCHAR
STARTCHAR 235
ENCODING 235
SWIDTH 864 0
DWIDTH 12 0
BBX 11 16 1 -11
BITMAP
8040
C0C0
FFC0
7FC0
73C0
61C0
C0C0
C060
C060
C060
C260
C260
63C0
7FC0
3F60
0020
ENDCHAR
STARTCHAR 236
ENCODING 236
SWIDTH 864 0
DWIDTH 12 0
BBX 11 13 0 -9
BITMAP
C600
7F80
30C0
1040
1040
10C0
1F80
1F00
1380
1180
11C0
10C0
1060
ENDCHAR
STARTCHAR 237
ENCODING 237
SWIDTH 864 0
DWIDTH 12 0
BBX 11 11 0 -11
BITMAP
0100
07E0
0FE0
0C20
0F00
0780
01C0
E1C0
7F00
3800
1000
ENDCHAR
STARTCHAR 238
ENCODING 238
SWIDTH 864 0
DWIDTH 12 0
BBX 11 13 1 -10
BITMAP
0F80
1FC0
38E0
3060
2040
3C00
1F00
03C0
40C0
60C0
FFC0
3F80
1E00
ENDCHAR
STARTCHAR 239
ENCODING 239
SWIDTH 864 0
DWIDTH 12 0
BBX 10 10 1 -9
BITMAP
2100
6180
6180
E1C0
C0C0
C0C0
E1C0
F3C0
7FC0
3F80
ENDCHAR
STARTCHAR 240
ENCODING 240
SWIDTH 864 0
DWIDTH 12 0
BBX 10 17 2 -11
BITMAP
8000
8000
8000
8000
C3C0
C180
C180
C180
C180
C180
C180
C180
C180
C180
E380
7F00
3E00
ENDCHAR
STARTCHAR 241
ENCODING 241
SWIDTH 864 0
DWIDTH 12 0
BBX 9 17 2 -11
BITMAP
8080
8080
8080
8080
C080
C180
C180
C180
C180
D580
C180
C180
C180
C180
C180
7F00
3E00
ENDCHAR
STARTCHAR 242
ENCODING 242
SWIDTH 864 0
DWIDTH 12 0
BBX 11 17 1 -11
BITMAP
8020
9120
9120
DB60
C060
C460
E4E0
E0E0
E0E0
E0E0
E0E0
E0E0
E0E0
61C0
7BC0
3F80
1F00
ENDCHAR
STARTCHAR 243
ENCODING 243
SWIDTH 864 0
DWIDTH 12 0
BBX 11 9 1 -10
BITMAP
E060
60C0
2180
3180
1B00
5B40
1F00
5E00
0E40
ENDCHAR
STARTCHAR 244
ENCODING 244
SWIDTH 864 0
DWIDTH 12 0
BBX 11 14 1 -10
BITMAP
5140
2080
0000
0A00
0400
E060
60C0
2180
3180
1B00
5BC0
1F00
1E00
8E40
ENDCHAR
STARTCHAR 245
ENCODING 245
SWIDTH 864 0
DWIDTH 12 0
BBX 11 14 1 -10
BITMAP
3F80
3F80
0000
0000
0000
E060
60C0
7180
3180
1B00
5B40
1F00
5E80
0E00
ENDCHAR
STARTCHAR 246
ENCODING 246
SWIDTH 864 0
DWIDTH 12 0
BBX 12 10 0 -8
BITMAP
A000
F000
60F0
7070
3020
3020
1360
1740
1DC0
0CC0
ENDCHAR
STARTCHAR 247
ENCODING 247
SWIDTH 864 0
DWIDTH 12 0
BBX 11 17 1 -11
BITMAP
8000
8000
8000
8000
C020
C000
C060
C000
C020
C060
E060
6E60
7E20
7BE0
71C0
60C0
4040
ENDCHAR
STARTCHAR 248
ENCODING 248
SWIDTH 864 0
DWIDTH 12 0
BBX 11 15 1 -11
BITMAP
0300
9820
8320
C060
C060
C060
C060
C060
C440
4E40
5F40
7BC0
71C0
60C0
4040
ENDCHAR
STARTCHAR 249
ENCODING 249
SWIDTH 864 0
DWIDTH 12 0
BBX 11 17 1 -11
BITMAP
8020
8020
8020
8020
C060
C060
C460
C460
C460
C460
C460
CE60
DF60
FBE0
E1E0
E0E0
C060
ENDCHAR
STARTCHAR 250
ENCODING 250
SWIDTH 864 0
DWIDTH 12 0
BBX 11 8 1 -8
BITMAP
3FE0
7FC0
C380
8600
0C00
1820
3860
7FE0
ENDCHAR
STARTCHAR 251
ENCODING 251
SWIDTH 864 0
DWIDTH 12 0
BBX 9 12 2 -9
BITMAP
FF80
C180
8180
8380
0700
0C00
1800
3000
6080
E180
FF80
FF80
ENDCHAR
STARTCHAR 252
ENCODING 252
SWIDTH 864 0
DWIDTH 12 0
BBX 11 12 0 -9
BITMAP
1FE0
1020
FE20
7C60
38C0
1180
0300
0E00
1C00
1C00
1FE0
1FE0
ENDCHAR
STARTCHAR 253
ENCODING 253
SWIDTH 864 0
DWIDTH 12 0
BBX 9 14 2 -10
BITMAP
FF80
D480
AB80
0300
0380
0580
0B00
3400
6800
F000
B000
7F80
D480
AB80
ENDCHAR
STARTCHAR 254
ENCODING 254
SWIDTH 864 0
DWIDTH 12 0
BBX 12 14 0 -10
BITMAP
FFF0
3FF0
1FF0
00F0
00F0
01E0
03C0
0F00
1E00
3C00
3C00
7FC0
7FE0
7FF0
ENDCHAR
STARTCHAR 255
ENCODING 255
SWIDTH 864 0
DWIDTH 12 0
BBX 11 14 1 -11
BITMAP
0180
F3C0
DE40
9C40
01C0
0380
0600
0C00
1800
3800
6000
EF20
FFE0
61C0
ENDCHAR
ENDFONT
